<svg xmlns="http://www.w3.org/2000/svg" viewBox="0 0 344 460"><path fill="#B5CDE3" d="M338.2 57.2c.1-.6.2-1.2.2-1.8 0-20.3-77.5-49.9-164.2-49.9C87.5 5.5 5.6 33.6 5.6 53.9c0 .6.1 1.2.2 1.8l47.8 334.4h.1c0 .5-.1 1-.1 1.5 0 34.8 54 63 120.6 63s120.6-28.2 120.6-63c0-.5-.1-1-.1-1.5h.1l43.4-332.9z"/><path fill="#FBDE34" d="M58.2 196.6L84 387.5s7.8 13.9 12.1 16.2c12.9 6.7 38.1 18.6 78.2 17.9 53.5-.9 85.3-20.3 85.3-20.3l8.6-13.4 25.1-199.6-235.1 8.3z"/><path fill="#FFF" d="M47.2 102.6c3.7-6.9 10.1-16.4 17.5-20.9s53.6-19.3 113.5-18.8c59.8.5 106.8 17.6 113.7 25.2 6.9 7.6 12.5 22.3 12.5 22.3l-11.1 77.9s-10.6 7.3-22.8 11.3c-12.2 4-46.4.8-56.5 5.2-10.1 4.3-38.7 19.8-38.7 19.8s-25.9 20.7-53.2 14.7c-17.3-3.7-35.1-34.7-47.3-35.6-9.5-.7-15.6-3.9-15.6-3.9s-15.7-90.3-12-97.2zM126.6 269.1c0 11-11.3 19.9-25.2 19.9-13.9 0-25.2-8.9-25.2-19.9 0-11 11.3-19.9 25.2-19.9 14 .1 25.2 8.9 25.2 19.9z"/><path fill="#FFF" d="M121.3 294.8c0 5.6-5.6 10.2-12.6 10.2s-12.6-4.6-12.6-10.2 5.6-10.2 12.6-10.2 12.6 4.6 12.6 10.2z"/><g fill="#343433"><path d="M90.3 380.6l19-11.5c3.7 6.5 7 12 15 12 7.7 0 12.5-3 12.5-14.6v-79.2H160v79.5c0 24.1-14.1 35.1-34.8 35.1-18.6 0-29.4-9.7-34.9-21.3M172.7 378.1l19-11c5 8.2 11.5 14.1 23 14.1 9.6 0 15.8-4.8 15.8-11.5 0-8-6.3-10.8-17-15.5l-5.8-2.5c-16.8-7.1-27.9-16.1-27.9-35.1 0-17.5 13.3-30.8 34.1-30.8 14.8 0 25.5 5.2 33.1 18.6L228.9 316c-4-7.1-8.3-10-15-10-6.8 0-11.1 4.3-11.1 10 0 7 4.3 9.8 14.3 14.1l5.8 2.5c19.8 8.5 30.9 17.1 30.9 36.6 0 21-16.5 32.4-38.6 32.4-21.7.3-35.7-10-42.5-23.5"/></g></svg>