<?xml version="1.0" standalone="no"?>
<!DOCTYPE svg PUBLIC "-//W3C//DTD SVG 20010904//EN"
 "http://www.w3.org/TR/2001/REC-SVG-20010904/DTD/svg10.dtd">
<svg version="1.0" xmlns="http://www.w3.org/2000/svg"
 width="920.000000pt" height="920.000000pt" viewBox="0 0 920.000000 920.000000"
 preserveAspectRatio="xMidYMid meet">
<metadata>
Created by potrace 1.11, written by Peter Selinger 2001-2013
</metadata>
<g transform="translate(0.000000,920.000000) scale(0.100000,-0.100000)"
fill="#000000" stroke="none">
<path d="M4287 9084 c-1 -2 -50 -6 -107 -9 -157 -8 -251 -15 -290 -20 -19 -3
-62 -7 -95 -10 -33 -2 -78 -7 -100 -9 -22 -3 -60 -8 -85 -10 -25 -3 -54 -8
-65 -10 -11 -2 -47 -7 -80 -10 -33 -4 -87 -12 -120 -17 -33 -6 -69 -12 -80
-14 -11 -2 -38 -6 -60 -9 -22 -3 -51 -8 -65 -11 -14 -3 -50 -9 -80 -15 -30 -6
-65 -12 -77 -15 -59 -13 -71 -15 -118 -25 -27 -5 -61 -12 -75 -15 -14 -3 -34
-8 -45 -11 -18 -4 -267 -68 -307 -79 -10 -3 -26 -7 -35 -9 -10 -2 -31 -9 -48
-16 -16 -6 -32 -11 -35 -11 -7 1 -220 -68 -245 -79 -11 -4 -54 -21 -95 -36
-136 -50 -391 -171 -454 -217 -142 -101 -221 -179 -233 -227 -3 -14 -9 -29
-13 -35 -8 -10 -6 -76 5 -142 3 -21 8 -57 11 -79 3 -23 7 -53 9 -65 6 -30 14
-92 20 -144 2 -22 5 -42 6 -45 1 -3 3 -9 4 -15 3 -20 16 -111 19 -140 2 -16 7
-49 10 -72 4 -23 9 -56 11 -73 2 -17 6 -43 9 -58 3 -15 8 -47 11 -72 3 -25 7
-54 9 -66 2 -11 7 -45 10 -75 3 -30 8 -65 11 -79 6 -26 10 -53 20 -135 4 -27
8 -61 11 -75 2 -14 7 -47 10 -75 3 -27 7 -60 10 -72 11 -59 13 -72 18 -123 4
-30 9 -68 12 -85 3 -16 7 -43 9 -60 2 -16 6 -46 9 -65 4 -20 8 -52 10 -70 2
-19 6 -51 10 -70 3 -19 8 -51 10 -70 3 -19 7 -48 10 -65 3 -16 7 -50 11 -75 3
-25 7 -58 10 -75 2 -16 7 -48 9 -70 3 -22 8 -51 10 -64 3 -13 8 -47 10 -75 3
-29 7 -59 10 -67 3 -8 7 -38 11 -68 3 -30 8 -64 10 -75 2 -12 7 -43 10 -71 16
-132 23 -180 25 -180 2 0 7 -32 16 -100 8 -70 8 -66 24 -175 16 -111 17 -116
25 -175 3 -27 8 -61 10 -75 3 -14 7 -43 10 -65 3 -22 10 -69 15 -105 5 -36 12
-83 15 -105 3 -22 7 -53 10 -70 3 -16 7 -47 10 -67 3 -21 7 -53 10 -70 2 -18
6 -51 9 -73 2 -22 7 -47 9 -55 3 -8 8 -40 11 -70 3 -30 7 -64 10 -75 2 -11 7
-45 11 -75 3 -30 9 -68 11 -85 8 -49 12 -78 18 -120 6 -44 17 -119 21 -150 2
-11 6 -38 9 -60 3 -22 8 -56 10 -75 34 -227 59 -402 61 -430 2 -19 4 -35 5
-35 2 0 7 -30 14 -100 4 -33 9 -67 11 -75 4 -14 12 -66 20 -130 7 -61 18 -136
39 -280 8 -52 17 -119 21 -149 4 -30 9 -63 11 -75 2 -12 6 -39 9 -61 3 -22 7
-53 10 -70 6 -37 15 -98 21 -144 2 -19 6 -46 8 -60 16 -100 18 -112 31 -216 3
-22 7 -53 10 -70 11 -65 16 -113 20 -175 2 -36 4 -65 5 -65 1 0 3 -16 6 -35 2
-19 11 -52 19 -73 8 -20 13 -37 10 -37 -3 0 15 -39 40 -86 64 -124 185 -269
295 -352 19 -15 37 -30 40 -33 8 -9 151 -105 195 -130 98 -56 229 -118 330
-158 61 -24 119 -47 130 -51 25 -10 196 -63 212 -66 6 -1 58 -13 115 -27 113
-28 206 -47 253 -54 16 -2 41 -6 55 -9 14 -4 44 -8 68 -10 24 -2 56 -6 70 -9
15 -3 50 -8 77 -10 28 -2 84 -7 125 -12 98 -10 621 -10 730 0 127 11 189 18
213 23 11 2 39 6 62 9 57 8 117 17 140 21 11 2 34 7 50 10 17 4 39 8 50 10 11
1 31 6 45 9 14 3 34 8 46 10 74 16 257 69 359 105 66 23 126 42 133 42 6 1 12
5 12 9 0 4 11 10 24 13 57 14 353 168 400 207 6 5 32 24 58 42 143 99 292 263
369 404 21 40 37 73 34 73 -3 0 1 12 9 28 8 15 16 41 19 57 3 17 9 41 12 55 3
14 8 61 10 105 2 44 6 89 8 100 3 11 8 51 12 90 4 38 8 72 10 75 2 3 6 35 9
70 3 36 9 76 11 90 3 14 7 43 9 65 2 22 6 56 9 75 4 19 9 55 12 80 3 25 10 81
16 125 5 44 19 148 30 230 22 161 26 193 34 270 3 28 7 61 10 74 2 13 7 49 11
80 3 31 8 65 10 76 2 11 7 47 10 80 11 98 12 110 14 110 3 0 7 34 14 100 3 33
8 69 10 80 2 11 7 49 11 85 4 36 9 74 11 84 2 11 6 42 9 70 3 28 8 64 11 80 2
15 7 51 10 80 11 101 12 111 19 146 3 19 8 49 10 65 11 108 17 152 20 165 2 8
7 42 10 75 4 33 9 74 12 90 3 17 7 46 8 65 4 34 12 95 21 156 3 17 6 46 8 65
11 99 21 176 26 189 1 3 2 8 1 12 0 5 4 41 9 80 6 40 12 90 15 111 3 20 7 54
10 75 3 20 7 54 10 76 8 64 15 119 22 161 3 22 7 58 9 80 1 22 5 49 7 60 3 11
8 47 11 80 4 33 9 71 11 85 2 14 7 42 10 64 3 21 8 43 12 49 4 6 1 7 -7 2 -9
-5 -11 -4 -6 3 9 15 14 40 21 106 3 28 8 69 11 91 4 22 8 51 9 65 4 35 15 118
21 160 2 19 7 53 9 74 3 22 7 51 10 65 2 14 7 51 10 81 3 30 8 66 10 80 4 29
17 124 20 160 2 14 4 27 5 30 1 3 2 8 2 11 -1 3 3 35 8 72 5 36 12 89 16 119
3 29 8 64 10 78 3 14 7 41 9 60 7 68 15 135 20 160 2 14 7 48 10 75 3 28 8 61
10 75 2 14 9 68 15 120 6 52 13 106 16 120 2 14 6 45 9 70 3 25 7 59 10 75 2
17 7 53 10 80 3 28 8 61 10 75 3 14 7 48 10 75 3 28 13 97 21 155 25 180 25
208 -1 265 -61 132 -296 299 -605 430 -36 15 -83 35 -105 45 -47 20 -362 128
-396 136 -30 6 -40 9 -59 17 -33 13 -120 36 -120 31 0 -3 -8 0 -18 5 -11 6
-30 12 -43 14 -13 3 -44 10 -69 17 -25 7 -56 14 -70 17 -14 2 -54 11 -90 19
-36 8 -81 17 -100 20 -19 3 -38 8 -43 11 -7 4 -17 6 -87 17 -19 3 -45 8 -56
10 -12 2 -39 7 -60 11 -22 3 -52 8 -69 11 -119 19 -146 23 -195 29 -54 6 -95
12 -95 15 0 1 -22 3 -50 5 -47 3 -84 7 -215 21 -30 3 -82 8 -115 10 -33 2 -98
7 -145 10 -86 6 -808 13 -813 8z"/>
</g>
</svg>
