<svg xmlns="http://www.w3.org/2000/svg" viewBox="0 0 64 64" role="img" aria-label="BeerJS Moscow">
  <rect width="64" height="64" rx="14" fill="#0b1013"/>
  <path fill="#f6c431" d="M17 22h30l-5 29H22z"/>
  <path fill="#fff7dc" d="M18 17h28c4 0 6 3 5 7-7 3-12-2-18 1-5 3-9 2-16-1-1-3-1-5 1-7z"/>
  <path fill="#d94b3d" d="m32 5 4 8 9 1-7 6 2 9-8-5-8 5 2-9-7-6 9-1z"/>
  <path fill="#132d34" d="M23 39h5c0 4-2 7-6 7-3 0-5-1-7-4l4-3c1 2 2 3 3 3s1-1 1-3zm12-11h5v18h-5zm7 14c2 0 3-1 3-2 0-2-2-2-4-3-4-1-6-3-6-6 0-4 3-6 7-6 3 0 6 1 8 4l-4 3c-1-2-2-3-4-3-1 0-2 1-2 2s1 2 4 3c4 1 6 3 6 6 0 4-3 6-8 6-4 0-7-2-9-5l4-3c2 3 3 4 5 4z"/>
</svg>
